<?xml version="1.0" encoding="UTF-8"?>
<svg version="1.1" viewBox="0 0 1080 1080" width="60" height="100" xmlns="http://www.w3.org/2000/svg">
<path transform="translate(0)" d="m0 0h1080v1080h-1080z" fill="#FEFEFE"/>
<path transform="translate(263,298)" d="m0 0h433l10 5 5 6 3 11v25h26l10 6 5 8 1 5 1 44 55 1 9 3 8 6 6 8 10 18 4 7v2l11 3 9 6 7 10 25 45 14 25 10 18 13 23 8 16 3 9 2 13v77l-3 8-7 8-8 3-26 1-4 13-6 11-8 10-9 8-11 6-7 3-13 3h-16l-11-2-13-5-12-8-10-10-7-11-3-5-12-6-10-7-205-1-2 10-8 16-11 12-11 8-10 5-9 3-8 1h-15l-14-3-11-5-11-7-9-9-7-11-1-4-12-3-15-8-5-4-84-1-6-4-3-4v-31h-40l-7-3-4-5-1-3v-45l-49-1-5-4-2-4v-7l4-6 6-3h46v-16h-98l-7-3-4-5-1-2v-6l4-6 4-3 3-1h106v-6l5-6 3-2h37l-1-17-88-1-5-3-3-4v-10l3-5h-33l-6-3-3-4v-11l3-5 4-2h77l-1-43-7-2-5-5-1-8 2-5 6-5 57-1 1-19h-44l-67-1-6-5-2-9 3-7 4-3 4-1h56v-44l3-9 6-7z" fill="#3E47CA"/>
<path transform="translate(359,369)" d="m0 0h328l1 1v282h-162l-11-7-9-4-7-3-7-13-11-12-10-7-10-5-15-4h-20l-15 4-12 6-9 7-8 8-7 11-5 13-2 6h-45v-31l41-1 5-2 1-5v-8l-5-6-3-1-90-1v-16l37-1 7-2 4-6 1-6 166-1 6-4 2-4v-8l-5-6-2-1-165-1v-18l117-1 5-3 2-3v-11l-6-5-2-1-116-1-1-29-3-7-6-3-9 1-5 6-1 32h-26v-66h43l84-1 5-3 3-7-1-6-4-5-2-1-77-1v-21l27-1 5-3 2-4 1-9z" fill="#FEFEFE"/>
<path transform="translate(246,432)" d="m0 0h26v66h26v-32l6-7 9-1 7 4 3 7v29h116l6 4 3 3v11l-5 6-3 1h-117v18h165l7 6 1 2v8l-4 6-5 3h-166v6l-4 6-3 2-5 1h-37v17h-26v-17h-98l-7-3-4-5-1-2v-6l4-6 4-3 3-1h106v-6l5-6 3-2h37l-1-17-88-1-5-3-3-4v-10l3-5h-33l-6-3-3-4v-11l3-5 4-2h77z" fill="#3E47CB"/>
<path transform="translate(263,298)" d="m0 0h433l10 5 5 6 3 11v25h-26l-1-21-415-1v39l27-1-1 26-44 1-67-1-6-5-2-9 3-7 4-3 4-1h56v-44l3-9 6-7z" fill="#000103"/>
<path transform="translate(757,478)" d="m0 0h78l14 25 11 19 6 11 14 26 4 8 3 11v74l-6-1-5-4-10-5-3-3-6-12-7-9-10-9-10-6-15-5-5-1h-20l-13 3-16 8-2 2h-3v-131z" fill="#FEFEFE"/>
<path transform="translate(689,368)" d="m0 0h23l2 1v40h17v25h-17v218h17v26h-185l-1 2v-5l-3-1-3-7-2-1-3-5-7-7v-2h161v-283z" fill="#020207"/>
<path transform="translate(272,323)" d="m0 0h415l1 1v20l-1 1-374 1-8 5-5 8-2 3h-26z" fill="#FEFEFE"/>
<path transform="translate(246,432)" d="m0 0h26v66h25l1 1v24h-89l-5-3-3-4v-10l3-5h-33l-6-3-3-4v-11l3-5 4-2h77z"/>
<path transform="translate(426,596)" d="m0 0h20l15 4 12 6 9 7 8 8 7 11 3 6v2l-3-1h-26l-2 1-1-4-9-8-12-5-4-1h-14l-12 4-11 7-7 9-5 12v21l4 11 3 4v2h-29l-4-13-46-1v14h-1v-70h2v30h45l3-12 6-12 7-9 9-9 13-8 11-4z" fill="#020207"/>
<path transform="translate(147,555)" d="m0 0h108l2 6 2 2 7 2 55 1v6l-4 6-3 2-5 1h-37v17h-26v-17h-98l-7-3-4-5-1-2v-6l4-6 4-3z" fill="#04040D"/>
<path transform="translate(835,478)" d="m0 0h17l6 11 7 13 5 8 3 5v3h2l1 6h2l3 5v3h2l4 9 3 5 5 9 3 5v3h2l1 6 3 1 7 14 2 5-1 72-4 8-7 6-4-4-3-5v-3h-2v-2l-3-1v-2l-3-1v-2l-3-1v-2h4l-1-74-5-16-16-29-9-16-15-27-6-10z" fill="#000002"/>
<path transform="translate(714,434)" d="m0 0h17v218h-17z" fill="#FEFEFE"/>
<path transform="translate(321,468)" d="m0 0 2 1v29h116l6 4 3 3v11l-5 6-3 1-117 1-1 16h-1z" fill="#000002"/>
<path transform="translate(755,478)" d="m0 0h1v132l7-4 14-7 13-3h20l15 4 10 5 11 8 8 8 8 13 3 6v3l-5-2-7-2-21-1-3-5-8-6-11-4-4-1h-13l-12 4-8 5-6 5-5 7-4 11v22l4 10 2 3v3h-9z" fill="#010105"/>
<path transform="translate(429,621)" d="m0 0h14l12 4 9 6 6 7-12 4-14 8-12 11-8 12-5 13-2 6h-16l-5-8-3-9v-21l5-12 8-10 11-7z" fill="#FEFEFE"/>
<path transform="translate(114,432)" d="m0 0h97l6 5 2 9-3 7-7 4h-93l-5-3-3-3v-14z" fill="#000001"/>
<path transform="translate(504,678)" d="m0 0h14l5 8 3 9v19l-4 11-7 9-8 7-7 4-13 3-11-1-9-3-8-4-7-6 1-3 14-5 10-6 11-10 9-14 5-13z" fill="#FEFEFE"/>
<path transform="translate(546,678)" d="m0 0h185v13l-1 1h-180z" fill="#FEFEFE"/>
<path transform="translate(755,366)" d="m0 0h1l1 42 55 1 9 3 8 6 6 8 10 18 5 10-1 1h-26l-3-1-8-16-4-3-52-1 1 20h-2z" fill="#000002"/>
<path transform="translate(169,476)" d="m0 0h92v2l6 1 3 6v7l-1 3-7 5h-57l-1 2-33-1-6-3-3-4v-11l3-5z" fill="#3E47CB"/>
<path transform="translate(793,621)" d="m0 0h13l13 4 9 6 4 4v2l-17 5-13 7-7 6h-2l-2 4-6 7-8 16-3 10h-9l-6-10-2-6v-22l4-11 8-10 8-6 12-5z" fill="#FEFEFE"/>
<path transform="translate(843,662)" d="m0 0h9l10 4 6 4 5 5v2l-5 1-4 13-5 10-10 13-11 9-14 7-10 3h-7l-4-5-5-10-1-7-1-2 1-12h1v12l15-3 14-7 8-9 5-10 2-5z" fill="#010104"/>
<path transform="translate(867,678)" d="m0 0h8l6 11 2 6v19l-5 12-8 10-10 7-7 3-10 2-10-1-9-2-10-6-5-6 15-4 14-7 11-9 9-12 6-12z" fill="#FEFEFE"/>
<path transform="translate(480,662)" d="m0 0h15l6 2 8 4 8 8v1h-13l-3 12-7 14-8 10-10 9-16 8-9 3-3-2-4-7-4-12v-16h1l1 11 7-1 7-3 9-6 7-8 5-10 2-7z" fill="#010104"/>
<path transform="translate(247,621)" d="m0 0h24l1 1v31h26v24h-43l-5-3-3-4-1-3v-45z" fill="#020207"/>
<path transform="translate(912,590)" d="m0 0 3 3 8 15 3 11v73h-19l-5-15 1-4 6-7 2-5z" fill="#FEFEFE"/>
<path transform="translate(836,661)" d="m0 0h6l1 1v13l-5 12-7 9-7 6-11 5-9 2h-6v-14l4-11 6-8 7-7 12-6z" fill="#FEFEFE"/>
<path transform="translate(246,432)" d="m0 0h26v66h-1l-2-13-2-3v-3l-6-1v-2h-15z" fill="#050611"/>
<path transform="translate(756,434)" d="m0 0h52l5 4 7 13v2h-64z" fill="#FEFEFE"/>
<path transform="translate(475,662)" d="m0 0h4v13l-4 11-7 9-8 7-7 4-7 2-5-1v-10l3-10 6-10 10-9 10-5z" fill="#FEFEFE"/>
<path transform="translate(272,621)" d="m0 0h24l2 1v30h-26z" fill="#FEFEFE"/>
<path transform="translate(322,368)" d="m0 0h34l2 3v8l-4 6-4 2h-27v21h-2v-39z" fill="#020207"/>
<path transform="translate(714,369)" d="m0 0h16l1 1v38l-1 1h-16z" fill="#FEFEFE"/>
<path transform="translate(323,678)" d="m0 0h45l3 9 1 5h-49z" fill="#FEFEFE"/>
<path transform="translate(550,716)" d="m0 0h225l4 13-1 3-18-10-5-4-205-1z"/>
<path transform="translate(309,716)" d="m0 0h109l4 14 1 3-12-3-15-8-5-4-82-1z" fill="#020207"/>
<path transform="translate(755,716)" d="m0 0h20l4 13-1 3-18-10-5-4z" fill="#03030A"/>
<path transform="translate(756,657)" d="m0 0h1l1 19 4 10 2 3v3h-9v-19z" fill="#0C0E29"/>
</svg>
